<svg baseProfile="full" height="346.9" version="1.1" viewBox="72.62 102.67 354.77 346.90" width="354.8" xmlns="http://www.w3.org/2000/svg" xmlns:ev="http://www.w3.org/2001/xml-events" xmlns:xlink="http://www.w3.org/1999/xlink"><title>demo</title><defs><marker id="as-arrow-inaccuracy" markerHeight="9.223968" markerUnits="userSpaceOnUse" markerWidth="9.223968" orient="auto" refX="9.223968" refY="4.611984"><path d="M0,0 L9.22,4.61 L0,9.22 Z" fill="#e1ad01" /></marker><marker id="as-arrow-mistake" markerHeight="9.223968" markerUnits="userSpaceOnUse" markerWidth="9.223968" orient="auto" refX="9.223968" refY="4.611984"><path d="M0,0 L9.22,4.61 L0,9.22 Z" fill="#e8590c" /></marker><marker id="as-arrow-blunder" markerHeight="9.223968" markerUnits="userSpaceOnUse" markerWidth="9.223968" orient="auto" refX="9.223968" refY="4.611984"><path d="M0,0 L9.22,4.61 L0,9.22 Z" fill="#c92a2a" /></marker></defs><style type="text/css"><![CDATA[.as-annotation{cursor:pointer}svg.as-has-selection .as-annotation{opacity:0.12}svg.as-has-selection .as-annotation.as-selected{opacity:1}]]></style><rect fill="white" height="346.8983718237988" width="354.768" x="72.61600000000001" y="102.66562817620118" /><g class="as-base" fill="none" stroke="#868e96" stroke-linejoin="round" stroke-width="1.5964559999999997"><polyline fill="none" points="102.45456084459785,278.6063867186019 109.13117094725175,307.38643937815027 120.05327837744892,334.2260167216668 134.97211168334798,358.5757048592149 153.40967302865434,379.62620485799704 174.80787058247236,396.72782585773746 198.4887034886766,409.31056505108484 223.74387468065987,417.0439622207238 249.81505734102316,419.67734668768253 275.89377891823926,417.119699339262 301.171305898275,409.45969062560323 324.8885865678799,396.9457875422901 346.33636699792305,379.9063916024206 364.83499356973846,358.90953389663065 379.82448972321697,334.6032815184892 390.82450895950603,307.79554160075935 397.58468505589155,279.0350031375266" /><polyline fill="none" points="120.42780613280917,151.95108020450394 142.40436173028482,142.0002221308448 166.36731948406586,139.0401910843704 190.32157848763194,142.06981213256438 212.27203783446276,150.0879103429104" /><polyline fill="none" points="288.140964366929,150.1980945122998 310.11462038099967,142.2437871368634 334.07757813478077,139.283756090389 358.0318371383469,142.313377138583 379.9793969017726,152.3280260471518" /><polyline fill="none" points="250.16438465173852,179.1429013192912 250.1136419421513,214.08253853819016 250.0628992325641,249.0221757570891 250.01215652297688,283.96181297598804" /><polyline fill="none" points="228.0283519669887,298.9040477952041 239.00213184870168,303.9113722494886 249.97881131381953,306.92214600555013 260.96418952915246,303.9432676669434 271.9524673278902,298.9678386301138" /><polygon fill="none" points="132.33752032042636,199.88569446228095 148.82501128949184,188.92858718514668 181.76809781016794,188.97643031132893 198.2236933617786,199.9813807146454 181.73620239271312,210.93848799177968 148.79311587203702,210.89064486559747" /><polygon fill="none" points="305.06359920480224,183.30558604079383 320.05222735849804,173.34457942521726 350.00048783184,173.388073176292 364.9601201514861,183.39257354294335 349.97149199779017,193.35358015851995 320.0232315244482,193.31008640744523" /><polygon fill="none" points="212.98760380158828,344.7530532113355 224.98140590794995,334.7876972206514 237.96623440491058,329.81516776722685 249.94263901084244,331.82911596587957 261.92484278358415,329.8499627680866 274.8951733635199,334.86018680577604 286.8599796358317,344.8603377973199 274.86327794606507,356.8222444862268 261.87844944910444,361.7947739396514 249.89624567636267,363.7739271374443 237.91984107043086,361.75997893879156 224.94951049049513,356.7497549011022" /><polygon fill="none" points="219.97553124536805,344.763201753253 234.95691044055147,339.79357188323337 249.92959088551996,340.81359410788207 264.90517091389347,339.83706563430815 279.872052192052,344.8501892554025 264.8906729968685,349.8198191254221 249.91509296849503,350.7963475989961 234.9424125235266,349.7763253743474" /></g><g class="as-reference" fill="none" opacity="0.28" stroke="#1c7ed6" stroke-linejoin="round" stroke-width="1.5964559999999997"><polyline fill="none" points="102.18,278.9 108.91,307.72 119.89,334.59 134.87,358.96 153.37,380.02 174.83,397.12 198.57,409.69 223.88,417.4 250.0,420.0 276.12,417.4 301.43,409.69 325.17,397.12 346.63,380.02 365.13,358.96 380.11,334.59 391.09,307.72 397.82,278.9" /><polyline fill="none" points="120.0,152.0 142.0,142.0 166.0,139.0 190.0,142.0 212.0,150.0" /><polyline fill="none" points="288.0,150.0 310.0,142.0 334.0,139.0 358.0,142.0 380.0,152.0" /><polyline fill="none" points="250.0,165.0 250.0,200.0 250.0,235.0 250.0,270.0" /><polyline fill="none" points="228.0,285.0 239.0,290.0 250.0,293.0 261.0,290.0 272.0,285.0" /><polygon fill="none" points="135.0,200.0 150.0,190.0 180.0,190.0 195.0,200.0 180.0,210.0 150.0,210.0" /><polygon fill="none" points="305.0,200.0 320.0,190.0 350.0,190.0 365.0,200.0 350.0,210.0 320.0,210.0" /><polygon fill="none" points="213.0,345.0 225.0,335.0 238.0,330.0 250.0,332.0 262.0,330.0 275.0,335.0 287.0,345.0 275.0,357.0 262.0,362.0 250.0,364.0 238.0,362.0 225.0,357.0" /><polygon fill="none" points="220.0,345.0 235.0,340.0 250.0,341.0 265.0,340.0 280.0,345.0 265.0,350.0 250.0,351.0 235.0,350.0" /></g><g class="as-annotation" data-finding-id="face_thirds" data-severity="blunder"><title>midface: 23% tall ??</title><circle cx="131.9750103040675" cy="141.1709950850016" fill="none" r="4.966752" stroke="#c92a2a" stroke-width="2.128608" /><circle cx="154.76285108956247" cy="133.12647444453262" fill="none" r="4.966752" stroke="#c92a2a" stroke-width="2.128608" /><circle cx="178.93299107200735" cy="132.22962817620117" fill="none" r="4.966752" stroke="#c92a2a" stroke-width="2.128608" /><circle cx="202.58019659796628" cy="137.3099500964202" fill="none" r="4.966752" stroke="#c92a2a" stroke-width="2.128608" /><circle cx="223.79923401400342" cy="147.19693402160266" fill="none" r="4.966752" stroke="#c92a2a" stroke-width="2.128608" /><circle cx="299.51003106897605" cy="153.8207704704247" fill="none" r="4.966752" stroke="#c92a2a" stroke-width="2.128608" /><circle cx="322.12356036897575" cy="147.7686392261392" fill="none" r="4.966752" stroke="#c92a2a" stroke-width="2.128608" /><circle cx="346.2937003514206" cy="146.87179295780774" fill="none" r="4.966752" stroke="#c92a2a" stroke-width="2.128608" /><circle cx="369.9409058773795" cy="151.95211487802678" fill="none" r="4.966752" stroke="#c92a2a" stroke-width="2.128608" /><circle cx="390.9856318079213" cy="163.8314881993927" fill="none" r="4.966752" stroke="#c92a2a" stroke-width="2.128608" /><circle cx="226.74778572693288" cy="297.07424565613985" fill="none" r="4.966752" stroke="#c92a2a" stroke-width="2.128608" /><circle cx="237.2701486922038" cy="303.01393231682283" fill="none" r="4.966752" stroke="#c92a2a" stroke-width="2.128608" /><circle cx="247.96682314297001" cy="306.9612295813223" fill="none" r="4.966752" stroke="#c92a2a" stroke-width="2.128608" /><circle cx="259.1864320502222" cy="304.93135865727135" fill="none" r="4.966752" stroke="#c92a2a" stroke-width="2.128608" /><circle cx="270.5803524429697" cy="300.9090983370368" fill="none" r="4.966752" stroke="#c92a2a" stroke-width="2.128608" /><circle cx="238.12258199962204" cy="419.481420730785" fill="none" r="4.966752" stroke="#c92a2a" stroke-width="2.128608" /><g class="as-badge"><circle cx="256.29863978795004" cy="211.72812955218296" fill="#c92a2a" r="10.64304" stroke="white" stroke-width="1.7028864" /><text fill="white" font-family="sans-serif" font-size="17.74px" font-weight="bold" text-anchor="middle" x="256.29863978795004" y="217.75918555218297">??</text></g></g><g class="as-annotation" data-finding-id="left_eye_vertical" data-severity="mistake"><title>left eye: 6% high ?</title><polygon fill="none" opacity="0.9" points="305.0,200.0 320.0,190.0 350.0,190.0 365.0,200.0 350.0,210.0 320.0,210.0" stroke="#2f9e44" stroke-dasharray="4,3" stroke-width="2.128608" /><line marker-end="url(#as-arrow-mistake)" stroke="#e8590c" stroke-width="2.483376" x1="335.0118596781441" x2="335.0" y1="183.34907979186858" y2="200.0" /><g class="as-badge"><circle cx="335.0118596781441" cy="183.34907979186858" fill="#e8590c" r="10.64304" stroke="white" stroke-width="1.7028864" /><text fill="white" font-family="sans-serif" font-size="17.74px" font-weight="bold" text-anchor="middle" x="335.0118596781441" y="189.38013579186858">?</text></g></g><g class="as-annotation" data-finding-id="right_eye_scale" data-severity="mistake"><title>right eye: 21% large ?</title><polygon fill="none" opacity="0.9" points="135.0,200.0 150.0,190.0 180.0,190.0 195.0,200.0 180.0,210.0 150.0,210.0" stroke="#2f9e44" stroke-dasharray="4,3" stroke-width="2.128608" /><polygon fill="none" points="132.33752032042636,199.88569446228095 148.82501128949184,188.92858718514668 181.76809781016794,188.97643031132893 198.2236933617786,199.9813807146454 181.73620239271312,210.93848799177968 148.79311587203702,210.89064486559747" stroke="#e8590c" stroke-width="2.128608" /><g class="as-badge"><circle cx="165.28060684110247" cy="199.9335375884632" fill="#e8590c" r="10.64304" stroke="white" stroke-width="1.7028864" /><text fill="white" font-family="sans-serif" font-size="17.74px" font-weight="bold" text-anchor="middle" x="165.28060684110247" y="205.9645935884632">?</text></g></g><g class="as-annotation" data-finding-id="nose_vertical" data-severity="mistake"><title>nose: 5% low ?</title><polyline fill="none" opacity="0.9" points="250.0,165.0 250.0,200.0 250.0,235.0 250.0,270.0" stroke="#2f9e44" stroke-dasharray="4,3" stroke-width="2.128608" /><polyline fill="none" opacity="0.9" points="228.0,285.0 239.0,290.0 250.0,293.0 261.0,290.0 272.0,285.0" stroke="#2f9e44" stroke-dasharray="4,3" stroke-width="2.128608" /><line marker-end="url(#as-arrow-mistake)" stroke="#e8590c" stroke-width="2.483376" x1="250.03100381510927" x2="250.0" y1="270.98423343753984" y2="257.0" /><g class="as-badge"><circle cx="250.03100381510927" cy="270.98423343753984" fill="#e8590c" r="10.64304" stroke="white" stroke-width="1.7028864" /><text fill="white" font-family="sans-serif" font-size="17.74px" font-weight="bold" text-anchor="middle" x="250.03100381510927" y="277.0152894375398">?</text></g></g><g class="as-annotation" data-finding-id="interocular_eye_width" data-severity="inaccuracy"><title>eye spacing: 6% narrow !?</title><circle cx="139.74587102928086" cy="190.0342095063773" fill="none" r="4.966752" stroke="#e1ad01" stroke-width="2.128608" /><circle cx="205.49472110333605" cy="195.78648852772272" fill="none" r="4.966752" stroke="#e1ad01" stroke-width="2.128608" /><circle cx="313.55699962187833" cy="188.31631039189529" fill="none" r="4.966752" stroke="#e1ad01" stroke-width="2.128608" /><circle cx="373.32868150738307" cy="193.5456549567548" fill="none" r="4.966752" stroke="#e1ad01" stroke-width="2.128608" /><g class="as-badge"><circle cx="258.0315683154696" cy="191.92066584568752" fill="#e1ad01" r="10.64304" stroke="white" stroke-width="1.7028864" /><text fill="white" font-family="sans-serif" font-size="17.74px" font-weight="bold" text-anchor="middle" x="258.0315683154696" y="197.95172184568753">!?</text></g></g></svg>