<svg baseProfile="full" height="254.3" version="1.1" viewBox="140.42 141.15 246.11 254.28" width="246.1" xmlns="http://www.w3.org/2000/svg" xmlns:ev="http://www.w3.org/2001/xml-events" xmlns:xlink="http://www.w3.org/1999/xlink"><title>real critique</title><defs><marker id="as-arrow-inaccuracy" markerHeight="6.611192678506902" markerUnits="userSpaceOnUse" markerWidth="6.611192678506902" orient="auto" refX="6.611192678506902" refY="3.305596339253451"><path d="M0,0 L6.61,3.31 L0,6.61 Z" fill="#e1ad01" /></marker><marker id="as-arrow-mistake" markerHeight="6.611192678506902" markerUnits="userSpaceOnUse" markerWidth="6.611192678506902" orient="auto" refX="6.611192678506902" refY="3.305596339253451"><path d="M0,0 L6.61,3.31 L0,6.61 Z" fill="#e8590c" /></marker><marker id="as-arrow-blunder" markerHeight="6.611192678506902" markerUnits="userSpaceOnUse" markerWidth="6.611192678506902" orient="auto" refX="6.611192678506902" refY="3.305596339253451"><path d="M0,0 L6.61,3.31 L0,6.61 Z" fill="#c92a2a" /></marker></defs><style type="text/css"><![CDATA[.as-annotation{cursor:pointer}svg.as-has-selection .as-annotation{opacity:0.12}svg.as-has-selection .as-annotation.as-selected{opacity:1}]]></style><rect fill="white" height="254.27664148103472" width="246.10998874785383" x="140.42234215199014" y="141.14682040263875" /><g class="as-base" fill="none" stroke="#868e96" stroke-linejoin="round" stroke-width="1.1442448866646562"><polyline fill="none" points="168.38056601512076,185.59648590815084 167.89415080792838,206.45093637628665 168.29902262566307,229.30779105492468 177.82141772089085,283.2473647825178 187.50609420160612,303.9407933737733 198.34905112837197,319.4269628761496 211.97404835501365,333.5684554597698 234.32562877453535,349.45568142987344 260.84011202775383,356.3130101263015 289.34195134454916,352.2484450031728 310.9786008152198,337.61534852323103 323.69949886459136,325.59815692035494 343.5977817110552,293.4945352781991 351.29066377781305,267.34585010782473 355.79138280515474,241.71432189128046 357.8824750536985,219.00811833176755 359.33605380105143,198.53386044085147" /><polyline fill="none" points="192.95773436189785,170.3410971070914 203.14386593509437,165.09071225897134 217.71381291207828,162.33654052605831 235.36561118761728,164.71175222125947 254.22258995075066,168.53409424792773" /><polyline fill="none" points="290.6340559358695,170.18816081157286 308.94279315345045,168.43752113597122 324.98972275222457,168.3917456348875 337.4000024505631,173.02893570008516 344.99168776667216,179.27723176257854" /><polyline fill="none" points="274.0853872724932,187.9719576584758 273.00530559487754,210.1845630538965 271.6637691876374,235.6025584689034 270.5139974142253,252.17964621264937" /><polyline fill="none" points="244.6152025474137,257.1050912792314 256.77864039784964,265.83049953288906 267.7484942024587,269.07612941249795 278.73272611652465,266.9694157450927 291.4016106247798,260.0339965995365" /><polygon fill="none" points="208.3103206196144,187.64970572242265 217.0650734413723,182.22537265382107 230.90546557970606,182.2221619284725 245.96446601860686,192.8256766444881 234.17843816145663,192.42914039127953 220.56475049659204,192.43862657414098" /><polygon fill="none" points="293.4960770832449,195.70674805214145 308.3548202411913,185.77673672353154 322.07262946147307,187.26468506790275 329.6764437522477,193.49918127903572 317.9727996442763,197.1019156933911 304.68264009150573,196.25181013413874" /><polygon fill="none" points="220.93146833927275,297.62114723235027 240.83200810687893,299.63793589606155 252.29836454206855,300.68713334714005 264.64662919498426,303.6075513221318 276.83303458407534,301.2645864005045 287.2681880295398,301.35452410485095 305.0410974095682,302.15331769176356 284.37692287479473,325.3383720525943 273.90829766023774,330.06881000814644 262.42523739942555,331.40126280358623 250.8144842255086,329.27040275176785 240.6837953355871,323.5913551896897" /><polygon fill="none" points="224.02610324795322,299.36683081121635 252.76152030997287,307.46299554907444 264.0049693053837,309.30718392764516 274.8239739172236,308.4138041421834 301.79287754295615,303.54323177621086 273.32486436571907,319.1259816409541 263.1132597030795,319.8988590512439 252.40296145119834,318.1575633187941" /></g><g class="as-reference" fill="none" opacity="0.28" stroke="#1c7ed6" stroke-linejoin="round" stroke-width="1.1442448866646562"><polyline fill="none" points="162.1400510072708,189.43199157714844 161.6120622754097,211.81772232055664 161.94729226827621,235.51429748535156 170.0176422894001,288.2382583618164 179.08570915460587,310.66091537475586 189.74755185842514,327.86144256591797 203.30701678991318,343.80237579345703 227.16388946771622,364.79522705078125 259.5957638025284,374.2337417602539 291.7870107293129,367.8667449951172 315.2001351714134,349.33441162109375 328.82084691524506,334.9803161621094 349.74775689840317,297.79184341430664 357.05598574876785,271.5240287780762 361.39199727773666,246.56005859375 363.7317987084389,223.04737091064453 365.3426107764244,200.84604263305664" /><polyline fill="none" points="188.24591499567032,172.4354362487793 199.05797812342644,166.5030860900879 214.51933425664902,163.25355529785156 233.26907086372375,165.81745147705078 253.29158252477646,170.14400482177734" /><polyline fill="none" points="292.1175523996353,172.35816955566406 311.82116854190826,170.2911376953125 328.948626101017,169.71765518188477 342.1106885075569,174.18106079101562 350.16591346263885,180.64081192016602" /><polyline fill="none" points="271.61898189783096,193.65961074829102 271.3624978065491,218.57364654541016 271.229104578495,242.8870964050293 270.84543853998184,257.6888656616211" /><polyline fill="none" points="240.0752311348915,262.14887619018555 255.09127128124237,270.0470733642578 268.4322962164879,273.3628845214844 281.437284886837,271.77738189697266 295.9953923821449,265.8182907104492" /><polygon fill="none" points="204.8557459115982,190.9154510498047 213.99101704359055,185.08838653564453 228.4445779323578,185.1302719116211 244.14370965957642,196.53751373291016 231.8001328110695,196.11906051635742 217.55954718589783,196.07513427734375" /><polygon fill="none" points="294.5026543736458,199.34370040893555 310.4866091609001,188.86236190795898 325.0626039505005,190.36191940307617 333.0215241909027,196.90589904785156 320.61950755119324,200.93994140625 306.46680557727814,200.03225326538086" /><polygon fill="none" points="219.21228539943695,286.66385650634766 240.48469787836075,286.9746780395508 252.7480954527855,287.91723251342773 265.9034389257431,291.0931968688965 278.800626039505,289.791202545166 289.72719472646713,290.88294982910156 308.0887860059738,294.03324127197266 286.735447704792,314.9289321899414 275.6538956165314,318.6437225341797 263.29120713472366,319.1365623474121 250.66283708810806,316.66154861450195 239.72754871845245,311.0153579711914" /><polygon fill="none" points="222.4747307896614,287.93785095214844 253.17810720205307,294.2654037475586 265.1940091252327,296.42955780029297 276.68380361795425,296.34973526000977 304.763451397419,294.90942001342773 275.07239431142807,306.8097496032715 264.1621600985527,306.83189392089844 252.64157795906067,304.7709655761719" /></g><g class="as-annotation" data-finding-id="mouth_vertical" data-severity="mistake"><title>mouth: 6% low ?</title><polygon fill="none" opacity="0.9" points="219.21228539943695,286.66385650634766 240.48469787836075,286.9746780395508 252.7480954527855,287.91723251342773 265.9034389257431,291.0931968688965 278.800626039505,289.791202545166 289.72719472646713,290.88294982910156 308.0887860059738,294.03324127197266 286.735447704792,314.9289321899414 275.6538956165314,318.6437225341797 263.29120713472366,319.1365623474121 250.66283708810806,316.66154861450195 239.72754871845245,311.0153579711914" stroke="#2f9e44" stroke-dasharray="4,3" stroke-width="1.5256598488862083" /><polygon fill="none" opacity="0.9" points="222.4747307896614,287.93785095214844 253.17810720205307,294.2654037475586 265.1940091252327,296.42955780029297 276.68380361795425,296.34973526000977 304.763451397419,294.90942001342773 275.07239431142807,306.8097496032715 264.1621600985527,306.83189392089844 252.64157795906067,304.7709655761719" stroke="#2f9e44" stroke-dasharray="4,3" stroke-width="1.5256598488862083" /><line marker-end="url(#as-arrow-mistake)" stroke="#e8590c" stroke-width="1.779936490367243" x1="263.3155028772714" x2="264.2603147596121" y1="311.5636424508955" y2="299.80235290527344" /><g class="as-badge"><circle cx="263.3155028772714" cy="311.5636424508955" fill="#e8590c" r="7.628299244431041" stroke="white" stroke-width="1.2205278791089667" /><text fill="white" font-family="sans-serif" font-size="12.71px" font-weight="bold" text-anchor="middle" x="263.3155028772714" y="315.8863453560731">?</text></g></g></svg>